<?xml version="1.0" encoding="utf-8"?>
<!-- Generator: Adobe Illustrator 27.8.1, SVG Export Plug-In . SVG Version: 6.00 Build 0)  -->
<svg version="1.1" id="Layer_1" xmlns="http://www.w3.org/2000/svg" xmlns:xlink="http://www.w3.org/1999/xlink" x="0px" y="0px"
	 viewBox="0 0 5105.3 1286.1" style="enable-background:new 0 0 5105.3 1286.1;" xml:space="preserve">
<style type="text/css">
	.st0{enable-background:new    ;}
	.st1{fill:#262626;}
	.st2{fill:#2B2B2B;}
	.st3{fill:url(#SVGID_1_);}
	.st4{fill:url(#SVGID_00000000216012235221299740000018278349685148387759_);}
	.st5{fill:url(#SVGID_00000158027246089879187280000016584469025824915126_);}
	.st6{fill:url(#SVGID_00000151512351008164196440000005688027632817339033_);}
	.st7{fill:url(#SVGID_00000004540408252190953290000009162331629078087860_);}
	.st8{fill:url(#SVGID_00000072997045824353685230000001030524353334574261_);}
	.st9{fill:url(#SVGID_00000108999967771619270180000010355887751672008602_);}
	.st10{fill:url(#SVGID_00000014594414705810815790000012072351281613732784_);}
	.st11{fill:url(#SVGID_00000179613978688869942780000003614390897720491649_);}
</style>
<g>
	<g id="Layer_1_00000110447032917386610630000000835305799851556799_">
		<g class="st0">
			<path class="st1" d="M34,954.9h34.8l48.6,92.3h1.6l48.6-92.3h33.3v181.5h-28.1V997.5h-1.3l-14.3,29.4l-39.8,72.5l-39.8-72.5
				l-14.3-29.4H62v138.8H34V954.9z"/>
		</g>
		<g class="st0">
			<path class="st1" d="M471.2,1136.4V954.9h116.2v26h-86.8v50.4h78.8v26h-78.8v53h86.8v26H471.2z"/>
		</g>
		<g class="st0">
			<path class="st1" d="M849.7,954.9h64.2c46.3,0,76.7,30.2,76.7,90.7c0,60.6-30.4,90.7-76.7,90.7h-64.2V954.9z M913.9,1110.4
				c27,0,45.2-17.4,45.2-50.2v-29.1c0-32.8-18.2-50.2-45.2-50.2h-34.8v129.5H913.9z"/>
		</g>
		<g class="st0">
			<path class="st1" d="M1238.1,1136.4v-23.9h24.7V978.8h-24.7v-23.9h79v23.9h-25v133.6h25v23.9H1238.1z"/>
		</g>
		<g class="st0">
			<path class="st1" d="M1564.2,1045.6c0-60.8,28.9-93.9,76.2-93.9c31.5,0,52.5,14,64.7,41.1l-24.7,13.5c-6.2-17.2-19-28.3-40-28.3
				c-27.8,0-45,20.3-45,53.8v27.6c0,33.5,17.2,53.8,45,53.8c21.6,0,35.4-12.5,41.9-30.2l23.7,14.3c-12.2,26.3-34.1,42.1-65.5,42.1
				C1593.1,1139.5,1564.2,1106.5,1564.2,1045.6z"/>
		</g>
		<g class="st0">
			<path class="st1" d="M2077.9,1136.4l-16.4-49.1h-67.9l-15.9,49.1h-29.9l61.9-181.5h36.9l61.9,181.5H2077.9z M2028.2,981.9h-1.3
				l-26.3,80.1h53.6L2028.2,981.9z"/>
		</g>
		<g class="st0">
			<path class="st1" d="M2363,1136.4V954.9h29.4v155.5h73.8v26H2363z"/>
		</g>
		<g class="st0">
			<path class="st1" d="M3012.5,1045.6c0-60.8,28.9-93.9,76.2-93.9c31.5,0,52.5,14,64.7,41.1l-24.7,13.5c-6.2-17.2-19-28.3-40-28.3
				c-27.8,0-45,20.3-45,53.8v27.6c0,33.5,17.2,53.8,45,53.8c21.6,0,35.4-12.5,41.9-30.2l23.7,14.3c-12.2,26.3-34.1,42.1-65.5,42.1
				C3041.3,1139.5,3012.5,1106.5,3012.5,1045.6z"/>
		</g>
		<g class="st0">
			<path class="st1" d="M3410,1136.4V954.9h116.2v26h-86.8v50.4h78.8v26h-78.8v53h86.8v26H3410z"/>
		</g>
		<g class="st0">
			<path class="st1" d="M3837.4,1036l-20-38.5h-0.8v138.8h-28.1V954.9h32.8l59.3,100.4l20,38.5h0.8V954.9h28.1v181.5h-32.8
				L3837.4,1036z"/>
		</g>
		<g class="st0">
			<path class="st1" d="M4238.2,980.9h-54.1v-26h137.5v26h-54.1v155.5h-29.4V980.9z"/>
		</g>
		<g class="st0">
			<path class="st1" d="M4576.2,1136.4V954.9h116.2v26h-86.8v50.4h78.8v26h-78.8v53h86.8v26H4576.2z"/>
		</g>
		<g class="st0">
			<path class="st1" d="M4984.1,1136.4h-29.4V954.9h78.3c32.5,0,52.5,21.1,52.5,54.6c0,25.7-12.2,43.7-35.4,50.4l39.3,76.4h-32.8
				l-36.4-73.3h-36.1V1136.4z M5030.9,1038.4c14.8,0,23.7-8.1,23.7-22.6v-12.5c0-14.6-8.8-22.6-23.7-22.6h-46.8v57.7H5030.9z"/>
		</g>
		<g>
			<path class="st2" d="M1670.5,791V72.4c0-16.9,13.7-30.7,30.7-30.7h238.1c72.1,0,137.6,16.9,196.6,50.8
				c59,33.9,105.4,79.9,139.3,138.2c33.9,58.2,50.8,122.7,50.8,193.3s-16.9,135.1-50.8,193.3c-33.9,58.2-80.3,104.3-139.3,138.2
				c-59,33.9-124.5,50.8-196.6,50.8h-253.3C1677.4,806.4,1670.5,799.5,1670.5,791L1670.5,791z M1938.1,672.1
				c46.6,0,88.7-10.7,126.2-32.2s66.6-51,87.4-88.5s31.1-79.9,31.1-127.2s-10.4-89.8-31.1-127.3s-49.9-67-87.4-88.5
				s-79.6-32.2-126.2-32.2h-93.9c-16.9,0-30.7,13.7-30.7,30.7v463.8c0,0.8,0.7,1.5,1.5,1.5H1938.1z"/>
			<path class="st2" d="M2471.9,791.1V73.6c0-17.6,14.2-31.8,31.8-31.8h456.4c8.5,0,15.4,6.9,15.4,15.3v104.7
				c0,8.5-6.9,15.4-15.4,15.4h-313.3c-17.6,0-31.8,14.2-31.8,31.8v133.1c0,8.5,6.9,15.4,15.4,15.4h288.3c8.5,0,15.4,6.9,15.4,15.4
				v97.1c0,8.5-6.9,15.4-15.4,15.4h-288.3c-8.5,0-15.4,6.9-15.4,15.4v155c0,8.5,6.9,15.3,15.4,15.3h329.8c8.5,0,15.4,6.9,15.4,15.3
				V791c0,8.5-6.9,15.3-15.4,15.3h-472.9C2478.7,806.4,2471.9,799.5,2471.9,791.1L2471.9,791.1z"/>
			<path class="st2" d="M3155.6,792.9V73.6c0-17.6,14.2-31.8,31.8-31.8h97.7c7.5,0,13.5,6.1,13.5,13.5v601c0,7.5,6.1,13.5,13.5,13.5
				h323.6c7.5,0,13.5,6.1,13.5,13.5v109.5c0,7.5-6.1,13.5-13.5,13.5h-466.6C3161.7,806.4,3155.6,800.4,3155.6,792.9L3155.6,792.9z"
				/>
			<path class="st2" d="M3806.2,792.9V73.6c0-17.6,14.2-31.8,31.8-31.8h97.7c7.5,0,13.5,6.1,13.5,13.5v601c0,7.5,6.1,13.5,13.5,13.5
				h323.6c7.5,0,13.5,6.1,13.5,13.5v109.5c0,7.5-6.1,13.5-13.5,13.5h-466.6C3812.3,806.4,3806.2,800.4,3806.2,792.9L3806.2,792.9z"
				/>
			<path class="st2" d="M4432,786l240.5-722.5c4.3-13,16.5-21.8,30.2-21.8h137.4c6.6,0,12.6,4.2,14.7,10.5l248.4,733.6
				c3.4,10.1-4.1,20.5-14.7,20.5h-118.8c-6.8,0-12.8-4.4-14.8-10.9l-41.2-131.2c-2-6.5-8-10.9-14.8-10.9h-263.3
				c-6.8,0-12.8,4.5-14.8,11l-40.2,131c-2,6.5-8,11-14.8,11h-118.8C4436.2,806.4,4428.7,796.1,4432,786L4432,786z M4682.2,530.1
				h169.6c10.5,0,18-10.2,14.8-20.2l-99.2-313c-0.2-0.6-0.8-1-1.4-1l0,0c-0.6,0-1.2,0.4-1.4,1.1L4667.4,510
				C4664.3,519.9,4671.8,530.1,4682.2,530.1L4682.2,530.1z"/>
			<path class="st2" d="M1345.8,529.2c-3-5.3-0.8-12,4.7-14.6c38.8-18.2,69.6-45.1,92.3-80.6c24.8-38.6,37.1-85.9,37.1-142
				c0-51.7-11.1-96.5-33.3-134.3c-22.2-37.9-53.2-66.6-92.9-86.3s-84.7-29.5-134.9-29.5H975.8c-20.2,0-36.5,16.3-36.5,36.5V796
				c0,5.8,4.7,10.5,10.5,10.5H1072c5.8,0,10.5-4.7,10.5-10.5V181.2c0-5.8,4.7-10.5,10.5-10.5h110.8c40.1,0,72.3,11.3,96.7,33.9
				c24.4,22.6,36.6,52.1,36.6,88.5c0,24.8-5.5,46.3-15.8,65c-36.6,66.1-165.9,86.8-165.9,86.8c-3.9,3.1-5,8.5-2.7,12.9l186,343
				c1.8,3.5,5.4,5.7,9.3,5.7h135.2c8,0,13-8.6,9.1-15.6L1345.8,529.2L1345.8,529.2z"/>
			<path class="st2" d="M1345.8,529.2c-3-5.3-0.8-12,4.7-14.6c38.8-18.2,69.6-45.1,92.3-80.6c24.8-38.6,37.1-85.9,37.1-142
				c0-51.7-11.1-96.5-33.3-134.3c-22.2-37.9-53.2-66.6-92.9-86.3s-84.7-29.5-134.9-29.5H975.8c-20.2,0-36.5,16.3-36.5,36.5V796
				c0,5.8,4.7,10.5,10.5,10.5H1072c5.8,0,10.5-4.7,10.5-10.5V181.2c0-5.8,4.7-10.5,10.5-10.5h110.8c40.1,0,72.3,11.3,96.7,33.9
				c24.4,22.6,36.6,52.1,36.6,88.5c0,24.8-5.5,46.3-15.8,65c-36.6,66.1-166,86.8-166,86.8c-3.9,3.1-5,8.5-2.7,12.9l186,343
				c1.8,3.5,5.4,5.7,9.3,5.7h135.2c8,0,13-8.6,9.1-15.6L1345.8,529.2L1345.8,529.2z"/>
		</g>
		<path class="st2" d="M854.2,798.6c-4-2.4-8.5-5.5-13.6-9.5c-5.1-4-10.7-9-16.8-15.1c-2.7-2.7-5.5-5.7-8.4-8.8
			c-1.5-1.6-2.9-3.2-4.4-5c-0.8-0.9-1.5-1.7-2.3-2.6c-1.5-1.8-3.1-3.6-4.6-5.5c-1.2-1.5-2.5-3-3.7-4.6c-4.1-5.2-8.4-10.9-12.9-17.1
			c-7.1-9.9-14.6-21.1-22.4-33.8c-1.9-3.1-3.8-6.2-5.7-9.5c-2.5-4.3-5.1-8.7-7.7-13.3c-1.3-2.4-2.7-4.8-4-7.2c-1-1.8-2-3.6-3-5.5
			c-3-5.5-6.1-11.3-9.2-17.2c-3.1-6-6.2-12.1-9.4-18.5c-4.2-8.5-8.5-17.5-12.9-26.8c-2.2-4.7-4.4-9.5-6.6-14.4s-4.4-9.9-6.7-15
			c-1.1-2.6-2.2-5.1-3.4-7.8c-1.2-2.7-2.3-5.5-3.5-8.2c-0.4-0.9-0.7-1.7-1.1-2.6c-0.8-1.9-1.6-3.8-2.4-5.7c-0.4-1-0.8-2-1.2-3
			c-0.7-1.8-1.5-3.6-2.2-5.4c-0.4-1-0.8-2-1.2-3c-0.7-1.8-1.5-3.6-2.2-5.4c-0.4-1-0.8-2-1.2-3c-0.7-1.8-1.5-3.6-2.2-5.4
			c-0.4-1-0.8-2-1.2-3c-0.7-1.8-1.5-3.7-2.2-5.6c-0.4-0.9-0.8-1.9-1.1-2.8c-0.8-1.9-1.5-3.8-2.3-5.8c-0.3-0.9-0.7-1.8-1-2.7
			c-0.8-2-1.6-4-2.3-6c-0.3-0.8-0.6-1.6-0.9-2.4c-0.8-2.1-1.6-4.2-2.4-6.3c-0.3-0.7-0.6-1.5-0.8-2.2c-0.8-2.2-1.7-4.4-2.5-6.5
			c-0.2-0.7-0.5-1.3-0.8-2c-0.9-2.3-1.7-4.6-2.6-6.8c-0.2-0.6-0.4-1.1-0.7-1.7c-0.9-2.4-1.8-4.8-2.7-7.2c-0.2-0.5-0.4-1-0.5-1.4
			c-0.9-2.5-1.9-5-2.8-7.5c-0.1-0.4-0.3-0.7-0.4-1.1c-1-2.6-1.9-5.3-2.9-7.9c-0.1-0.2-0.2-0.5-0.3-0.7c-0.1-0.3-0.2-0.6-0.3-0.9
			c45-6.1,83.8-7.4,113.8-7.5c1.5,0,3-0.7,3.9-1.9l12.7-16.5c2.5-3.2,0.2-8-3.9-8c-49-0.9-94.7,0.9-137.1,4.5
			c-9.3-27.9-57.7-172.2-71.6-213.7c-0.5-1.6-1-3.1-1.5-4.6c0-0.1-0.1-0.2-0.1-0.3c-0.7-2.1-1.4-4.2-2.1-6.3
			c-0.2-0.5-0.3-0.9-0.5-1.4c-0.7-2.1-1.4-4.2-2.1-6.3c0-0.1-0.1-0.3-0.1-0.4c-0.3-0.9-0.6-1.7-0.9-2.6c-4-12.1-8.1-24.2-12.3-36.2
			c-0.2-0.7-0.5-1.5-0.8-2.2c-0.1-0.2-0.1-0.4-0.2-0.6c-0.6-1.8-1.2-3.5-1.8-5.3c-0.2-0.6-0.4-1.1-0.6-1.7c-0.5-1.5-1-2.9-1.5-4.4
			c-0.2-0.5-0.4-1-0.5-1.5c-0.7-1.9-1.3-3.7-2-5.6c-0.1-0.4-0.3-0.7-0.4-1.1c-0.5-1.5-1.1-3-1.6-4.4c-0.2-0.6-0.4-1.1-0.6-1.7
			c-0.5-1.4-1-2.8-1.5-4.2c-0.2-0.4-0.3-0.8-0.4-1.2c-0.7-1.8-1.3-3.5-1.9-5.2c-0.2-0.4-0.3-0.9-0.5-1.3c-0.5-1.3-1-2.6-1.5-3.9
			c-0.2-0.5-0.4-1.1-0.6-1.6c-0.5-1.4-1.1-2.9-1.6-4.3c-0.1-0.2-0.2-0.5-0.3-0.8c-0.6-1.6-1.3-3.3-1.9-4.9c-0.2-0.4-0.3-0.9-0.5-1.3
			c-0.5-1.2-0.9-2.4-1.4-3.6c-0.2-0.5-0.4-0.9-0.6-1.4c-0.6-1.5-1.2-3.1-1.8-4.6c0,0,0,0,0-0.1c-1.3-3.1-2.6-6.1-3.9-9
			c-2.2-5.2-4.7-10.3-7.3-15.1c-10.3-18.6-25.1-36-45.4-43.6c-3.6-1.3-8.8-2.5-12.6-2.9C451.1,0,450.2,0,450.2,0h-63.9
			c-38.2,0-82,0-96.7,0c-2.4,0-4.8,0-4.8,0s-2,0-5.3,1.1c-10.1,3.2-33.1,16.4-54.8,69.8C149.2,257.1,16.1,742,0.2,800.6
			c-0.8,2.9,1.4,5.8,4.4,5.8h142.8c2.8,0,5.3-1.9,6-4.6c0.7-2.7,1.8-6.5,3.1-11.3c14.4-46,69.6-181.3,241-271.5
			c38.5-20.3,76.2-35.9,112.3-47.9c0.6,1.6,1.2,3.2,1.8,4.8c0.1,0.4,0.3,0.8,0.4,1.2c0.9,2.4,1.8,4.7,2.7,7.1c0.2,0.5,0.4,1,0.6,1.6
			c0.9,2.2,1.7,4.5,2.6,6.7c0.2,0.6,0.5,1.3,0.7,1.9c0.8,2.1,1.7,4.3,2.5,6.4c0.3,0.7,0.6,1.5,0.8,2.2c0.8,2,1.6,4,2.4,6
			c0.3,0.9,0.7,1.7,1,2.5c0.8,1.9,1.5,3.8,2.2,5.7c0.4,1,0.8,1.9,1.1,2.9c0.7,1.8,1.4,3.6,2.1,5.3c0.4,1.1,0.9,2.1,1.3,3.2
			c0.7,1.7,1.3,3.3,2,5c0.5,1.2,0.9,2.3,1.4,3.5c0.6,1.6,1.3,3.1,1.9,4.7c0.5,1.3,1,2.6,1.6,3.8c0.6,1.4,1.2,2.8,1.7,4.2
			c0.6,1.4,1.2,2.8,1.8,4.2c0.5,1.3,1.1,2.5,1.6,3.8c0.7,1.6,1.3,3.1,2,4.7c0.5,1.1,0.9,2.2,1.4,3.3c0.8,1.8,1.5,3.7,2.3,5.5
			c0.3,0.8,0.7,1.6,1,2.5c1.1,2.6,2.3,5.3,3.4,7.9c18,41.4,34.8,75.2,50.3,102.7c0.7,1.2,1.3,2.4,2,3.6c1.3,2.3,2.7,4.7,4,6.9
			c1.3,2.3,2.6,4.5,3.9,6.6c2,3.2,3.9,6.4,5.8,9.5c1.3,2,2.5,4,3.8,6c1.2,2,2.5,3.9,3.7,5.7c7.4,11.2,14.4,20.9,21,29.3
			c1.1,1.4,2.2,2.8,3.3,4.1c2.7,3.3,5.3,6.4,7.9,9.3c1,1.2,2,2.3,3,3.4c2.5,2.7,4.9,5.3,7.2,7.6c28.6,28.7,45.9,30,48.8,30
			c0.3,0,0.4,0,0.4,0h132.5C856.2,806.4,857.8,800.8,854.2,798.6L854.2,798.6z M228.8,534.8L228.8,534.8
			C274.5,377.4,331.6,190,373.3,83.5c0.4,1,0.8,2,1.2,3c0.1,0.3,0.2,0.6,0.3,0.9c0.7,1.7,1.3,3.5,2,5.2c0.2,0.4,0.3,0.9,0.5,1.4
			c0.5,1.3,1,2.7,1.5,4.1c0.2,0.6,0.4,1.1,0.6,1.7c0.5,1.4,1,2.8,1.6,4.2c0.2,0.5,0.3,0.9,0.5,1.4c0.7,1.9,1.4,3.8,2.1,5.7
			c0.1,0.3,0.2,0.7,0.4,1c0.6,1.6,1.2,3.2,1.8,4.9c0.2,0.6,0.4,1.2,0.6,1.7c0.5,1.5,1.1,3,1.6,4.5c0.2,0.5,0.4,1,0.6,1.6
			c1.5,4.1,3,8.2,4.5,12.4c0.2,0.5,0.3,0.9,0.5,1.4c0.6,1.7,1.2,3.4,1.8,5.1c0.2,0.5,0.4,1.1,0.6,1.6c0.7,2.1,1.5,4.1,2.2,6.2
			c0,0.1,0,0.1,0.1,0.2c0.8,2.3,1.6,4.6,2.4,6.9c0.1,0.3,0.2,0.5,0.3,0.8c0.7,2,1.4,4.1,2.1,6.1c0.1,0.4,0.3,0.8,0.4,1.2
			c0.8,2.2,1.5,4.5,2.3,6.7c0,0,0,0.1,0,0.1c1.7,4.9,3.4,9.9,5.2,14.9c0,0.1,0.1,0.3,0.1,0.4c17.9,52.2,37.7,111.3,58.7,171.6
			c0,0.1,0.1,0.2,0.1,0.3c3.1,8.9,6.2,17.7,9.4,26.6c0.1,0.4,0.3,0.7,0.4,1.1c0.8,2.1,1.5,4.2,2.2,6.3c0,0,0,0,0,0
			c2.3,6.5,4.7,13.1,7,19.6c0.2,0.5,0.4,1,0.6,1.6c0.7,1.9,1.4,3.8,2.1,5.7c0.2,0.5,0.4,1.1,0.6,1.6c0.9,2.4,1.8,4.9,2.7,7.3
			C344.7,462.7,257.1,515.7,228.8,534.8L228.8,534.8z"/>
		
			<linearGradient id="SVGID_1_" gradientUnits="userSpaceOnUse" x1="451.8921" y1="709.6733" x2="252.672" y2="649.3333" gradientTransform="matrix(1 0 0 -1 0 1286)">
			<stop  offset="0.2" style="stop-color:#262626"/>
			<stop  offset="1" style="stop-color:#000000"/>
		</linearGradient>
		<path class="st3" d="M228.7,534.8c-34.1,117.4-61.9,218-72.2,255.7c14.4-45.9,69.6-181.3,241-271.5
			C547,440.3,329.4,465.9,228.7,534.8L228.7,534.8z"/>
		
			<linearGradient id="SVGID_00000141421230000465613130000017177473411217761718_" gradientUnits="userSpaceOnUse" x1="638.8448" y1="872.0892" x2="638.7247" y2="871.3692" gradientTransform="matrix(1 0 0 -1 0 1286)">
			<stop  offset="0" style="stop-color:#FFFFFF"/>
			<stop  offset="1" style="stop-color:#000000"/>
		</linearGradient>
		<path style="fill:url(#SVGID_00000141421230000465613130000017177473411217761718_);" d="M639.6,414.2c-0.4-1-0.7-2-1.1-3
			C639.2,413.2,639.5,414.3,639.6,414.2L639.6,414.2C639.5,414.3,639.6,414.3,639.6,414.2L639.6,414.2z"/>
		
			<linearGradient id="SVGID_00000109011471725855172340000016798879805099939202_" gradientUnits="userSpaceOnUse" x1="638.0314" y1="871.2917" x2="638.0215" y2="871.2417" gradientTransform="matrix(1 0 0 -1 0 1286)">
			<stop  offset="0" style="stop-color:#FFFFFF"/>
			<stop  offset="1" style="stop-color:#000000"/>
		</linearGradient>
		<path style="fill:url(#SVGID_00000109011471725855172340000016798879805099939202_);" d="M638,414.5c0,0.1,0,0.1,0.1,0.2l0,0
			C638.1,414.7,638,414.6,638,414.5z"/>
		
			<linearGradient id="SVGID_00000017485280063480722460000015664550928565458349_" gradientUnits="userSpaceOnUse" x1="638.0358" y1="871.4182" x2="637.9758" y2="871.5582" gradientTransform="matrix(1 0 0 -1 0 1286)">
			<stop  offset="0" style="stop-color:#FFFFFF"/>
			<stop  offset="1" style="stop-color:#000000"/>
		</linearGradient>
		<path style="fill:url(#SVGID_00000017485280063480722460000015664550928565458349_);" d="M638.1,414.7L638.1,414.7
			c0-0.1,0-0.1-0.1-0.2C638,414.6,638.1,414.6,638.1,414.7z"/>
		
			<linearGradient id="SVGID_00000152262729407191197270000004696924719309835904_" gradientUnits="userSpaceOnUse" x1="638.7896" y1="873.8337" x2="638.0396" y2="875.7537" gradientTransform="matrix(1 0 0 -1 0 1286)">
			<stop  offset="0" style="stop-color:#FFFFFF"/>
			<stop  offset="1" style="stop-color:#000000"/>
		</linearGradient>
		<path style="fill:url(#SVGID_00000152262729407191197270000004696924719309835904_);" d="M639.5,414.3L639.5,414.3
			C639.5,414.3,639.6,414.3,639.5,414.3c-0.3-1-0.7-2.1-1-3.1C639.2,413.2,639.5,414.3,639.5,414.3z"/>
		
			<linearGradient id="SVGID_00000137127943524018858800000000600358175660286640_" gradientUnits="userSpaceOnUse" x1="588.0225" y1="920.3116" x2="391.5025" y2="1227.5116" gradientTransform="matrix(1 0 0 -1 0 1286)">
			<stop  offset="0.22" style="stop-color:#262626"/>
			<stop  offset="1" style="stop-color:#000000"/>
		</linearGradient>
		<path style="fill:url(#SVGID_00000137127943524018858800000000600358175660286640_);" d="M519.1,71.9c-3.7-9.1-7.6-18.6-12.6-27
			C494.3,23.6,473,1.6,446.8,2.3c-1.1,0-10,0.6-17,3.8c-15.3,7-35.4,25.2-51.5,64.8c-1.6,4.1-3.3,8.3-5,12.6
			c28.8,73.7,66,190.8,107.8,308.5c5.4,15.3,146.9-6.4,141.8-21.3C589.8,273.5,554.5,162.2,519.1,71.9L519.1,71.9z"/>
		
			<linearGradient id="SVGID_00000036934718704517902910000005508317469315256969_" gradientUnits="userSpaceOnUse" x1="707.7291" y1="564.5399" x2="716.1991" y2="475.5999" gradientTransform="matrix(1 0 0 -1 0 1286)">
			<stop  offset="0" style="stop-color:#262626"/>
			<stop  offset="1" style="stop-color:#000000"/>
		</linearGradient>
		<path style="fill:url(#SVGID_00000036934718704517902910000005508317469315256969_);" d="M854.2,798.5
			c-28.1-16.9-85.5-70.1-157.6-237.3c-17.9-41.6-157.6-14.8-142.3,20.3c100,230.4,165.2,224.8,165.2,224.8H852
			C856.2,806.4,857.8,800.7,854.2,798.5z"/>
		
			<linearGradient id="SVGID_00000103974746335303926670000001820919453740240829_" gradientUnits="userSpaceOnUse" x1="682.422" y1="680.6725" x2="531.082" y2="805.4725" gradientTransform="matrix(1 0 0 -1 0 1286)">
			<stop  offset="0" style="stop-color:#262626"/>
			<stop  offset="1" style="stop-color:#000000"/>
		</linearGradient>
		<path style="fill:url(#SVGID_00000103974746335303926670000001820919453740240829_);" d="M696.6,561.3
			c-16.9-39.2-32.9-80.5-48.1-122.2c-41.7,5.6-88.6,15.4-138.6,32c14.4,38.3,29.3,75.7,44.4,110.5
			C654.2,812,768.7,728.5,696.6,561.3L696.6,561.3z"/>
		
			<linearGradient id="SVGID_00000150097219329401521500000002839082627434795157_" gradientUnits="userSpaceOnUse" x1="566.2772" y1="920.0706" x2="556.1071" y2="864.7305" gradientTransform="matrix(1 0 0 -1 0 1286)">
			<stop  offset="0" style="stop-color:#262626"/>
			<stop  offset="1" style="stop-color:#000000"/>
		</linearGradient>
		<path style="fill:url(#SVGID_00000150097219329401521500000002839082627434795157_);" d="M636.3,409.7
			c-36.9-105.4-188.8-109.3-141.4,20.9C537.1,421.6,584.2,414.2,636.3,409.7z"/>
	</g>
</g>
</svg>
